HIERARCHY
ROOT Hips
{
  OFFSET 0.000 67.479 0.000
  CHANNELS 6 Xposition Yposition Zposition Zrotation Xrotation Yrotation
  JOINT LeftUpLeg
  {
    OFFSET 7.769 0.446 3.423
    CHANNELS 6 Xposition Yposition Zposition Zrotation Xrotation Yrotation
    JOINT LeftLeg
    {
      OFFSET 0.000 -35.721 0.000
      CHANNELS 6 Xposition Yposition Zposition Zrotation Xrotation Yrotation
      JOINT LeftFoot
      {
        OFFSET 0.000 -32.204 0.000
        CHANNELS 6 Xposition Yposition Zposition Zrotation Xrotation Yrotation
        End Site
        {
          OFFSET 0.000 0.000 9.705
        }
      }
    }
  }
  JOINT RightUpLeg
  {
    OFFSET -7.769 0.446 3.423
    CHANNELS 6 Xposition Yposition Zposition Zrotation Xrotation Yrotation
    JOINT RightLeg
    {
      OFFSET 0.000 -35.721 0.000
      CHANNELS 6 Xposition Yposition Zposition Zrotation Xrotation Yrotation
      JOINT RightFoot
      {
        OFFSET 0.000 -32.204 0.000
        CHANNELS 6 Xposition Yposition Zposition Zrotation Xrotation Yrotation
        End Site
        {
          OFFSET 0.000 0.000 9.705
        }
      }
    }
  }
  JOINT Spine
  {
    OFFSET 0.000 31.903 0.000
    CHANNELS 6 Xposition Yposition Zposition Zrotation Xrotation Yrotation
    JOINT Spine1
    {
      OFFSET 0.000 23.372 0.000
      CHANNELS 6 Xposition Yposition Zposition Zrotation Xrotation Yrotation
      JOINT LeftShoulder
      {
        OFFSET 1.702 -0.472 0.153
        CHANNELS 6 Xposition Yposition Zposition Zrotation Xrotation Yrotation
        JOINT LeftArm
        {
          OFFSET 15.720 0.000 0.000
          CHANNELS 6 Xposition Yposition Zposition Zrotation Xrotation Yrotation
          JOINT LeftForeArm
          {
            OFFSET 28.601 0.000 0.000
            CHANNELS 6 Xposition Yposition Zposition Zrotation Xrotation Yrotation
            JOINT LeftHand
            {
              OFFSET 22.142 0.000 0.000
              CHANNELS 6 Xposition Yposition Zposition Zrotation Xrotation Yrotation
              JOINT LeftHandThumb1
              {
                OFFSET 4.877 -1.044 3.608
                CHANNELS 6 Xposition Yposition Zposition Zrotation Xrotation Yrotation
                JOINT LeftHandThumb2
                {
                  OFFSET 2.665 -0.000 -0.000
                  CHANNELS 6 Xposition Yposition Zposition Zrotation Xrotation Yrotation
                  JOINT LeftHandThumb3
                  {
                    OFFSET 2.543 0.000 -0.000
                    CHANNELS 6 Xposition Yposition Zposition Zrotation Xrotation Yrotation
                    End Site
                    {
                      OFFSET 2.667 0.000 -0.000
                    }
                  }
                }
              }
              JOINT LeftHandIndex1
              {
                OFFSET 9.232 -0.301 2.144
                CHANNELS 6 Xposition Yposition Zposition Zrotation Xrotation Yrotation
                JOINT LeftHandIndex2
                {
                  OFFSET 4.225 -0.000 0.000
                  CHANNELS 6 Xposition Yposition Zposition Zrotation Xrotation Yrotation
                  JOINT LeftHandIndex3
                  {
                    OFFSET 2.654 0.000 -0.000
                    CHANNELS 6 Xposition Yposition Zposition Zrotation Xrotation Yrotation
                    End Site
                    {
                      OFFSET 1.958 -0.000 0.000
                    }
                  }
                }
              }
              JOINT LeftHandMiddle1
              {
                OFFSET 8.920 -0.000 0.000
                CHANNELS 6 Xposition Yposition Zposition Zrotation Xrotation Yrotation
                JOINT LeftHandMiddle2
                {
                  OFFSET 4.863 0.000 0.000
                  CHANNELS 6 Xposition Yposition Zposition Zrotation Xrotation Yrotation
                  JOINT LeftHandMiddle3
                  {
                    OFFSET 2.765 0.000 0.000
                    CHANNELS 6 Xposition Yposition Zposition Zrotation Xrotation Yrotation
                    End Site
                    {
                      OFFSET 2.006 -0.000 0.000
                    }
                  }
                }
              }
              JOINT LeftHandRing1
              {
                OFFSET 8.689 -0.126 -2.087
                CHANNELS 6 Xposition Yposition Zposition Zrotation Xrotation Yrotation
                JOINT LeftHandRing2
                {
                  OFFSET 4.538 0.000 0.000
                  CHANNELS 6 Xposition Yposition Zposition Zrotation Xrotation Yrotation
                  JOINT LeftHandRing3
                  {
                    OFFSET 2.305 0.000 0.000
                    CHANNELS 6 Xposition Yposition Zposition Zrotation Xrotation Yrotation
                    End Site
                    {
                      OFFSET 1.923 -0.000 0.000
                    }
                  }
                }
              }
              JOINT LeftHandPinky1
              {
                OFFSET 8.391 -0.817 -3.758
                CHANNELS 6 Xposition Yposition Zposition Zrotation Xrotation Yrotation
                JOINT LeftHandPinky2
                {
                  OFFSET 3.044 0.000 0.000
                  CHANNELS 6 Xposition Yposition Zposition Zrotation Xrotation Yrotation
                  JOINT LeftHandPinky3
                  {
                    OFFSET 1.975 0.000 0.000
                    CHANNELS 6 Xposition Yposition Zposition Zrotation Xrotation Yrotation
                    End Site
                    {
                      OFFSET 1.667 0.000 -0.000
                    }
                  }
                }
              }
            }
          }
        }
      }
      JOINT RightShoulder
      {
        OFFSET -1.702 -0.472 0.153
        CHANNELS 6 Xposition Yposition Zposition Zrotation Xrotation Yrotation
        JOINT RightArm
        {
          OFFSET -15.720 0.000 0.000
          CHANNELS 6 Xposition Yposition Zposition Zrotation Xrotation Yrotation
          JOINT RightForeArm
          {
            OFFSET -28.601 0.000 0.000
            CHANNELS 6 Xposition Yposition Zposition Zrotation Xrotation Yrotation
            JOINT RightHand
            {
              OFFSET -22.142 0.000 0.000
              CHANNELS 6 Xposition Yposition Zposition Zrotation Xrotation Yrotation
              JOINT RightHandThumb1
              {
                OFFSET -4.877 -1.044 3.608
                CHANNELS 6 Xposition Yposition Zposition Zrotation Xrotation Yrotation
                JOINT RightHandThumb2
                {
                  OFFSET -2.665 0.000 0.000
                  CHANNELS 6 Xposition Yposition Zposition Zrotation Xrotation Yrotation
                  JOINT RightHandThumb3
                  {
                    OFFSET -2.543 0.000 -0.000
                    CHANNELS 6 Xposition Yposition Zposition Zrotation Xrotation Yrotation
                    End Site
                    {
                      OFFSET -2.667 0.000 -0.000
                    }
                  }
                }
              }
              JOINT RightHandIndex1
              {
                OFFSET -9.232 -0.301 2.144
                CHANNELS 6 Xposition Yposition Zposition Zrotation Xrotation Yrotation
                JOINT RightHandIndex2
                {
                  OFFSET -4.225 0.000 0.000
                  CHANNELS 6 Xposition Yposition Zposition Zrotation Xrotation Yrotation
                  JOINT RightHandIndex3
                  {
                    OFFSET -2.654 -0.000 -0.000
                    CHANNELS 6 Xposition Yposition Zposition Zrotation Xrotation Yrotation
                    End Site
                    {
                      OFFSET -1.958 0.000 -0.000
                    }
                  }
                }
              }
              JOINT RightHandMiddle1
              {
                OFFSET -8.920 0.000 0.000
                CHANNELS 6 Xposition Yposition Zposition Zrotation Xrotation Yrotation
                JOINT RightHandMiddle2
                {
                  OFFSET -4.863 -0.000 -0.000
                  CHANNELS 6 Xposition Yposition Zposition Zrotation Xrotation Yrotation
                  JOINT RightHandMiddle3
                  {
                    OFFSET -2.765 -0.000 0.000
                    CHANNELS 6 Xposition Yposition Zposition Zrotation Xrotation Yrotation
                    End Site
                    {
                      OFFSET -2.006 0.000 0.000
                    }
                  }
                }
              }
              JOINT RightHandRing1
              {
                OFFSET -8.689 -0.126 -2.087
                CHANNELS 6 Xposition Yposition Zposition Zrotation Xrotation Yrotation
                JOINT RightHandRing2
                {
                  OFFSET -4.538 0.000 0.000
                  CHANNELS 6 Xposition Yposition Zposition Zrotation Xrotation Yrotation
                  JOINT RightHandRing3
                  {
                    OFFSET -2.305 -0.000 0.000
                    CHANNELS 6 Xposition Yposition Zposition Zrotation Xrotation Yrotation
                    End Site
                    {
                      OFFSET -1.923 -0.000 0.000
                    }
                  }
                }
              }
              JOINT RightHandPinky1
              {
                OFFSET -8.391 -0.817 -3.758
                CHANNELS 6 Xposition Yposition Zposition Zrotation Xrotation Yrotation
                JOINT RightHandPinky2
                {
                  OFFSET -3.044 0.000 -0.000
                  CHANNELS 6 Xposition Yposition Zposition Zrotation Xrotation Yrotation
                  JOINT RightHandPinky3
                  {
                    OFFSET -1.975 -0.000 -0.000
                    CHANNELS 6 Xposition Yposition Zposition Zrotation Xrotation Yrotation
                    End Site
                    {
                      OFFSET -1.667 0.000 0.000
                    }
                  }
                }
              }
            }
          }
        }
      }
      JOINT Neck
      {
        OFFSET 0.000 0.764 0.000
        CHANNELS 6 Xposition Yposition Zposition Zrotation Xrotation Yrotation
        JOINT Head
        {
          OFFSET 0.000 6.943 0.000
          CHANNELS 6 Xposition Yposition Zposition Zrotation Xrotation Yrotation
          End Site
          {
            OFFSET 0.000 15.981 0.000
          }
        }
      }
    }
  }
}
MOTION
Frames:	4
Frame Time:	0.033333
6.96079 76.17776 -233.86900 -1.44295 -1.63422 -5.49315 8.04382 0.49695 3.60380 9.20095 -0.05701 10.60157 0.00500 -36.60141 -0.00337 -1.77903 8.79704 6.74467 -0.00026 -32.72598 -0.00089 -0.82904 24.55907 1.98508 -7.57046 0.23920 3.60303 -4.79805 -0.27567 -14.69833 -0.00373 -35.09966 -0.00099 -0.36425 9.14346 -1.48121 0.00165 -33.99502 -0.00254 0.01211 24.58837 -0.04969 0.00621 31.88442 -0.00349 0.18445 1.90978 0.51529 0.00517 23.32237 -0.01030 -0.02779 2.32117 0.51676 1.64238 -0.44070 0.16141 -14.93513 1.44144 -5.38679 15.34112 -0.00406 0.00061 -64.37154 4.32357 -7.84289 24.74037 0.00435 0.00461 -10.64116 10.45336 -15.11218 22.47757 -0.00153 -0.00004 -16.86752 17.79034 -1.45365 4.87700 -1.04400 3.60800 -41.57594 -8.45725 -7.72882 2.66501 -0.00001 -0.00001 -0.00000 -0.00000 5.00000 2.54301 0.00000 -0.00004 0.00001 0.00000 60.00000 9.23200 -0.30100 2.14399 -80.00000 0.00000 0.00000 4.22499 -0.00001 0.00000 -90.00000 -0.00000 0.00001 2.65400 0.00001 -0.00002 -70.00001 -0.00000 -0.00000 8.91998 -0.00001 0.00000 -80.00000 0.00000 0.00000 4.86298 0.00000 0.00001 -90.00000 -0.00000 0.00001 2.76501 0.00001 0.00000 -70.00001 -0.00000 -0.00000 8.68899 -0.12603 -2.08702 -80.00000 0.00000 0.00000 4.53800 0.00000 0.00000 -90.00000 -0.00000 0.00001 2.30500 0.00000 0.00000 -70.00001 -0.00000 -0.00000 8.39099 -0.81700 -3.75800 -80.00000 0.00000 0.00000 3.04400 0.00000 0.00001 -90.00000 -0.00000 0.00001 1.97501 0.00000 0.00000 -70.00001 -0.00000 -0.00000 -1.76831 -0.47827 0.16227 15.12900 1.35411 4.98390 -16.58643 -0.00740 0.00038 67.98710 2.96596 3.36650 -25.98742 0.00312 0.00313 3.13852 0.18288 20.62278 -22.12716 -0.00209 0.00247 24.15431 9.87643 -2.17527 -4.87700 -1.04400 3.60802 40.90540 11.75461 -3.91034 -2.66500 0.00000 0.00000 0.00000 -0.00000 -5.00000 -2.54300 0.00002 -0.00001 0.00000 -0.00000 -60.00000 -9.23199 -0.30099 2.14401 -2.00000 0.00000 0.00000 -4.22502 0.00001 0.00000 -2.00000 -0.00000 -0.00000 -2.65399 -0.00001 -0.00002 -2.00000 0.00000 0.00000 -8.92000 0.00001 0.00004 80.00000 -0.00000 0.00001 -4.86300 -0.00001 -0.00002 90.00000 -0.00000 0.00001 -2.76499 -0.00001 0.00004 70.00000 -0.00000 0.00000 -8.68899 -0.12599 -2.08697 80.00000 -0.00000 0.00001 -4.53799 0.00000 0.00000 90.00000 -0.00000 0.00001 -2.30500 -0.00001 0.00001 70.00000 -0.00000 0.00000 -8.39100 -0.81699 -3.75795 -2.00000 0.00000 0.00000 -3.04401 0.00000 -0.00002 -2.00000 -0.00000 -0.00000 -1.97499 -0.00001 -0.00002 -2.00000 0.00000 0.00000 -0.00000 0.76971 0.00000 0.00000 -0.00005 0.00001 -0.00846 6.86208 0.00775 7.85821 12.73262 -7.09659 
6.96079 76.17776 -233.86278 -1.40139 -1.63443 -5.41413 8.03697 0.49695 3.60380 9.14340 -0.05700 10.62433 0.00500 -36.60295 -0.00337 -1.73743 8.78408 6.62220 -0.00026 -32.72251 -0.00089 -0.89173 24.53866 2.13741 -7.57046 0.23920 3.60303 -4.86287 -0.26414 -14.67963 -0.00373 -35.08562 -0.00099 -0.30380 9.20632 -1.51841 0.00165 -34.01987 -0.00254 0.01039 24.14445 -0.04635 0.00621 31.88442 -0.00349 0.19030 1.90076 0.52907 0.00517 23.32237 -0.01030 -0.02836 2.32117 0.53096 1.64238 -0.44070 0.16141 -14.94811 1.44800 -5.40654 15.34112 -0.00406 0.00061 -64.43344 4.26723 -7.85895 24.75454 0.00435 0.00461 -10.59884 10.42871 -15.06760 22.45808 -0.00153 -0.00004 -17.08072 17.83598 -1.20386 4.87700 -1.04400 3.60800 -41.57594 -8.45725 -7.72882 2.66501 -0.00001 -0.00001 -0.00000 -0.00000 5.00000 2.54301 0.00000 -0.00004 0.00001 0.00000 60.00000 9.23200 -0.30100 2.14399 -80.00000 0.00000 0.00000 4.22499 -0.00001 0.00000 -90.00000 -0.00000 0.00001 2.65400 0.00001 -0.00002 -70.00001 -0.00000 -0.00000 8.91998 -0.00001 0.00000 -80.00000 0.00000 0.00000 4.86298 0.00000 0.00001 -90.00000 -0.00000 0.00001 2.76501 0.00001 0.00000 -70.00001 -0.00000 -0.00000 8.68899 -0.12603 -2.08702 -80.00000 0.00000 0.00000 4.53800 0.00000 0.00000 -90.00000 -0.00000 0.00001 2.30500 0.00000 0.00000 -70.00001 -0.00000 -0.00000 8.39099 -0.81700 -3.75800 -80.00000 0.00000 0.00000 3.04400 0.00000 0.00001 -90.00000 -0.00000 0.00001 1.97501 0.00000 0.00000 -70.00001 -0.00000 -0.00000 -1.76831 -0.47827 0.16227 15.10541 1.35407 5.00201 -16.58643 -0.00740 0.00038 67.95074 2.96602 3.34502 -25.97137 0.00312 0.00313 3.09288 0.33136 20.61964 -22.12136 -0.00209 0.00247 24.22349 9.75591 -2.30367 -4.87700 -1.04400 3.60802 40.90540 11.75461 -3.91034 -2.66500 0.00000 0.00000 0.00000 -0.00000 -5.00000 -2.54300 0.00002 -0.00001 0.00000 -0.00000 -60.00000 -9.23199 -0.30099 2.14401 -2.00000 0.00000 0.00000 -4.22502 0.00001 0.00000 -2.00000 -0.00000 -0.00000 -2.65399 -0.00001 -0.00002 -2.00000 0.00000 0.00000 -8.92000 0.00001 0.00004 80.00000 -0.00000 0.00001 -4.86300 -0.00001 -0.00002 90.00000 -0.00000 0.00001 -2.76499 -0.00001 0.00004 70.00000 -0.00000 0.00000 -8.68899 -0.12599 -2.08697 80.00000 -0.00000 0.00001 -4.53799 0.00000 0.00000 90.00000 -0.00000 0.00001 -2.30500 -0.00001 0.00001 70.00000 -0.00000 0.00000 -8.39100 -0.81699 -3.75795 -2.00000 0.00000 0.00000 -3.04401 0.00000 -0.00002 -2.00000 -0.00000 -0.00000 -1.97499 -0.00001 -0.00002 -2.00000 0.00000 0.00000 -0.00000 0.76971 0.00000 0.00000 -0.00005 0.00001 -0.00846 6.86208 0.00775 7.68767 12.73493 -7.00994 
6.96079 76.17776 -233.85809 -1.36336 -1.63465 -5.33428 8.02874 0.49695 3.60380 9.09402 -0.05699 10.66309 0.00500 -36.58577 -0.00337 -1.72169 8.75486 6.53553 -0.00026 -32.70849 -0.00089 -1.02468 24.67587 2.44432 -7.57046 0.23920 3.60383 -4.92414 -0.25108 -14.66363 -0.00373 -35.07106 -0.00099 -0.21227 9.31516 -1.57707 0.00165 -34.05428 -0.00254 0.07880 23.55937 -0.21857 0.00621 31.88442 -0.00349 0.19408 1.89324 0.53737 0.00517 23.32237 -0.01030 -0.02869 2.32117 0.53905 1.64238 -0.44070 0.16141 -14.97001 1.45637 -5.42948 15.34112 -0.00406 0.00061 -64.49729 4.19971 -7.85298 24.75352 0.00435 0.00461 -10.50975 10.39347 -15.05705 22.45635 -0.00153 -0.00004 -17.25263 17.92235 -1.02895 4.87700 -1.04400 3.60800 -41.57594 -8.45725 -7.72882 2.66501 -0.00001 -0.00001 -0.00000 -0.00000 5.00000 2.54301 0.00000 -0.00004 0.00001 0.00000 60.00000 9.23200 -0.30100 2.14399 -80.00000 0.00000 0.00000 4.22499 -0.00001 0.00000 -90.00000 -0.00000 0.00001 2.65400 0.00001 -0.00002 -70.00001 -0.00000 -0.00000 8.91998 -0.00001 0.00000 -80.00000 0.00000 0.00000 4.86298 0.00000 0.00001 -90.00000 -0.00000 0.00001 2.76501 0.00001 0.00000 -70.00001 -0.00000 -0.00000 8.68899 -0.12603 -2.08702 -80.00000 0.00000 0.00000 4.53800 0.00000 0.00000 -90.00000 -0.00000 0.00001 2.30500 0.00000 0.00000 -70.00001 -0.00000 -0.00000 8.39099 -0.81700 -3.75800 -80.00000 0.00000 0.00000 3.04400 0.00000 0.00001 -90.00000 -0.00000 0.00001 1.97501 0.00000 0.00000 -70.00001 -0.00000 -0.00000 -1.76831 -0.47827 0.16227 15.06945 1.35403 5.02206 -16.58643 -0.00740 0.00038 67.93768 2.97640 3.33022 -25.96906 0.00312 0.00313 3.05651 0.46063 20.60673 -22.10967 -0.00209 0.00247 24.28928 9.66921 -2.44019 -4.87700 -1.04400 3.60802 40.90540 11.75461 -3.91034 -2.66500 0.00000 0.00000 0.00000 -0.00000 -5.00000 -2.54300 0.00002 -0.00001 0.00000 -0.00000 -60.00000 -9.23199 -0.30099 2.14401 -2.00000 0.00000 0.00000 -4.22502 0.00001 0.00000 -2.00000 -0.00000 -0.00000 -2.65399 -0.00001 -0.00002 -2.00000 0.00000 0.00000 -8.92000 0.00001 0.00004 80.00000 -0.00000 0.00001 -4.86300 -0.00001 -0.00002 90.00000 -0.00000 0.00001 -2.76499 -0.00001 0.00004 70.00000 -0.00000 0.00000 -8.68899 -0.12599 -2.08697 80.00000 -0.00000 0.00001 -4.53799 0.00000 0.00000 90.00000 -0.00000 0.00001 -2.30500 -0.00001 0.00001 70.00000 -0.00000 0.00000 -8.39100 -0.81699 -3.75795 -2.00000 0.00000 0.00000 -3.04401 0.00000 -0.00002 -2.00000 -0.00000 -0.00000 -1.97499 -0.00001 -0.00002 -2.00000 0.00000 0.00000 -0.00000 0.76971 0.00000 0.00000 -0.00005 0.00001 -0.00846 6.86208 0.00775 7.53877 12.73882 -6.86112 
6.96079 76.17776 -233.85286 -1.32457 -1.63491 -5.23291 8.01923 0.49695 3.60689 9.04433 -0.05699 10.68595 0.00500 -36.57018 -0.00337 -1.70655 8.72912 6.47519 -0.00026 -32.69246 -0.00089 -1.10464 24.79099 2.62407 -7.57046 0.24404 3.60674 -4.98342 -0.22278 -14.67928 -0.00373 -35.06425 -0.00099 -0.11332 9.36433 -1.65707 0.00165 -34.06547 -0.00254 0.17221 23.22207 -0.45846 0.00621 31.88132 -0.00349 0.19800 1.88590 0.53127 0.00517 23.32237 -0.01030 -0.02842 2.32117 0.53247 1.64238 -0.44070 0.16141 -14.99378 1.46530 -5.45373 15.34112 -0.00406 0.00061 -64.54916 4.15443 -7.84406 24.75167 0.00435 0.00461 -10.44544 10.36067 -15.05076 22.46764 -0.00153 -0.00004 -17.38455 17.95112 -1.17003 4.87700 -1.04400 3.60800 -41.57594 -8.45725 -7.72882 2.66501 -0.00001 -0.00001 -0.00000 -0.00000 5.00000 2.54301 0.00000 -0.00004 0.00001 0.00000 60.00000 9.23200 -0.30100 2.14399 -80.00000 0.00000 0.00000 4.22499 -0.00001 0.00000 -90.00000 -0.00000 0.00001 2.65400 0.00001 -0.00002 -70.00001 -0.00000 -0.00000 8.91998 -0.00001 0.00000 -80.00000 0.00000 0.00000 4.86298 0.00000 0.00001 -90.00000 -0.00000 0.00001 2.76501 0.00001 0.00000 -70.00001 -0.00000 -0.00000 8.68899 -0.12603 -2.08702 -80.00000 0.00000 0.00000 4.53800 0.00000 0.00000 -90.00000 -0.00000 0.00001 2.30500 0.00000 0.00000 -70.00001 -0.00000 -0.00000 8.39099 -0.81700 -3.75800 -80.00000 0.00000 0.00000 3.04400 0.00000 0.00001 -90.00000 -0.00000 0.00001 1.97501 0.00000 0.00000 -70.00001 -0.00000 -0.00000 -1.76831 -0.47827 0.16227 15.02252 1.35398 5.04561 -16.58643 -0.00740 0.00038 67.93779 2.99160 3.32358 -25.97756 0.00312 0.00313 3.04653 0.52394 20.57960 -22.09404 -0.00209 0.00247 24.07011 9.55059 -2.17835 -4.87700 -1.04400 3.60802 40.90540 11.75461 -3.91034 -2.66500 0.00000 0.00000 0.00000 -0.00000 -5.00000 -2.54300 0.00002 -0.00001 0.00000 -0.00000 -60.00000 -9.23199 -0.30099 2.14401 -2.00000 0.00000 0.00000 -4.22502 0.00001 0.00000 -2.00000 -0.00000 -0.00000 -2.65399 -0.00001 -0.00002 -2.00000 0.00000 0.00000 -8.92000 0.00001 0.00004 80.00000 -0.00000 0.00001 -4.86300 -0.00001 -0.00002 90.00000 -0.00000 0.00001 -2.76499 -0.00001 0.00004 70.00000 -0.00000 0.00000 -8.68899 -0.12599 -2.08697 80.00000 -0.00000 0.00001 -4.53799 0.00000 0.00000 90.00000 -0.00000 0.00001 -2.30500 -0.00001 0.00001 70.00000 -0.00000 0.00000 -8.39100 -0.81699 -3.75795 -2.00000 0.00000 0.00000 -3.04401 0.00000 -0.00002 -2.00000 -0.00000 -0.00000 -1.97499 -0.00001 -0.00002 -2.00000 0.00000 0.00000 -0.00000 0.76971 0.00000 0.00000 -0.00005 0.00001 -0.00846 6.86208 0.00775 7.38490 12.73845 -6.78392 
